<svg width="682" height="183" viewBox="0 0 682 183" fill="none" xmlns="http://www.w3.org/2000/svg">
<path d="M62.1 145L44.4 120.25L26.1 145H0.6L31.65 104.35L1.65 64.3H27.9L45 87.85L62.55 64.3H87.45L57.45 103.75L88.65 145H62.1ZM135.919 146.2C127.419 146.2 119.769 144.45 112.969 140.95C106.269 137.35 101.019 132.4 97.2188 126.1C93.4188 119.8 91.5188 112.65 91.5188 104.65C91.5188 96.65 93.4188 89.5 97.2188 83.2C101.019 76.9 106.269 72 112.969 68.5C119.769 64.9 127.419 63.1 135.919 63.1C144.419 63.1 152.019 64.9 158.719 68.5C165.419 72 170.669 76.9 174.469 83.2C178.269 89.5 180.169 96.65 180.169 104.65C180.169 112.65 178.269 119.8 174.469 126.1C170.669 132.4 165.419 137.35 158.719 140.95C152.019 144.45 144.419 146.2 135.919 146.2ZM135.919 127C141.919 127 146.819 125 150.619 121C154.519 116.9 156.469 111.45 156.469 104.65C156.469 97.85 154.519 92.45 150.619 88.45C146.819 84.35 141.919 82.3 135.919 82.3C129.919 82.3 124.969 84.35 121.069 88.45C117.169 92.45 115.219 97.85 115.219 104.65C115.219 111.45 117.169 116.9 121.069 121C124.969 125 129.919 127 135.919 127ZM244.86 63.1C254.86 63.1 262.91 66.1 269.01 72.1C275.21 78.1 278.31 87 278.31 98.8V145H254.91V102.4C254.91 96 253.51 91.25 250.71 88.15C247.91 84.95 243.86 83.35 238.56 83.35C232.66 83.35 227.96 85.2 224.46 88.9C220.96 92.5 219.21 97.9 219.21 105.1V145H195.81V64.3H218.16V73.75C221.26 70.35 225.11 67.75 229.71 65.95C234.31 64.05 239.36 63.1 244.86 63.1ZM299.521 64.3H322.921V145H299.521V64.3ZM311.221 53.05C306.921 53.05 303.421 51.8 300.721 49.3C298.021 46.8 296.671 43.7 296.671 40C296.671 36.3 298.021 33.2 300.721 30.7C303.421 28.2 306.921 26.95 311.221 26.95C315.521 26.95 319.021 28.15 321.721 30.55C324.421 32.95 325.771 35.95 325.771 39.55C325.771 43.45 324.421 46.7 321.721 49.3C319.021 51.8 315.521 53.05 311.221 53.05ZM395.938 145L378.238 120.25L359.938 145H334.438L365.488 104.35L335.488 64.3H361.738L378.838 87.85L396.388 64.3H421.288L391.288 103.75L422.488 145H395.938Z" fill="white"/>
<path d="M462.797 146.2C453.697 146.2 446.597 143.8 441.497 139C436.397 134.1 433.847 127.2 433.847 118.3V33.7H457.247V116.95C457.247 120.35 458.097 123 459.797 124.9C461.597 126.7 464.097 127.6 467.297 127.6C468.497 127.6 469.697 127.45 470.897 127.15C472.197 126.85 473.197 126.5 473.897 126.1L474.947 144.25C471.047 145.55 466.997 146.2 462.797 146.2ZM566.87 64.3V145H544.52V135.7C538.72 142.7 530.32 146.2 519.32 146.2C511.72 146.2 504.82 144.5 498.62 141.1C492.52 137.7 487.72 132.85 484.22 126.55C480.72 120.25 478.97 112.95 478.97 104.65C478.97 96.35 480.72 89.05 484.22 82.75C487.72 76.45 492.52 71.6 498.62 68.2C504.82 64.8 511.72 63.1 519.32 63.1C529.62 63.1 537.67 66.35 543.47 72.85V64.3H566.87ZM523.37 127C529.27 127 534.17 125 538.07 121C541.97 116.9 543.92 111.45 543.92 104.65C543.92 97.85 541.97 92.45 538.07 88.45C534.17 84.35 529.27 82.3 523.37 82.3C517.37 82.3 512.42 84.35 508.52 88.45C504.62 92.45 502.67 97.85 502.67 104.65C502.67 111.45 504.62 116.9 508.52 121C512.42 125 517.37 127 523.37 127ZM636.234 63.1C643.734 63.1 650.534 64.85 656.634 68.35C662.834 71.75 667.684 76.6 671.184 82.9C674.684 89.1 676.434 96.35 676.434 104.65C676.434 112.95 674.684 120.25 671.184 126.55C667.684 132.75 662.834 137.6 656.634 141.1C650.534 144.5 643.734 146.2 636.234 146.2C625.134 146.2 616.684 142.7 610.884 135.7V145H588.534V33.7H611.934V72.85C617.834 66.35 625.934 63.1 636.234 63.1ZM632.184 127C638.184 127 643.084 125 646.884 121C650.784 116.9 652.734 111.45 652.734 104.65C652.734 97.85 650.784 92.45 646.884 88.45C643.084 84.35 638.184 82.3 632.184 82.3C626.184 82.3 621.234 84.35 617.334 88.45C613.534 92.45 611.634 97.85 611.634 104.65C611.634 111.45 613.534 116.9 617.334 121C621.234 125 626.184 127 632.184 127Z" fill="#FB2C1D"/>
<circle cx="311" cy="39" r="15" fill="#FB2C1D"/>
</svg>
