<svg width="805" height="292" viewBox="0 0 805 292" fill="none" xmlns="http://www.w3.org/2000/svg">
<g filter="url(#filter0_d_864_56332)">
<path d="M220.11 143.935C223.595 149.813 224.894 155.215 224.398 160.186C223.903 165.157 221.606 169.752 217.799 174.005C210.166 182.531 196.525 189.609 179.504 195.44C145.486 207.095 98.2788 213.672 59.6732 217.081C59.1407 217.128 58.6116 217.186 58.0862 217.255C57.2263 205.639 56.0434 193.675 54.9143 182.533C54.7847 181.253 54.6558 179.985 54.5282 178.73C52.8777 162.489 51.4431 148.374 51.4431 140.141C51.4431 111.235 61.7232 77.5387 77.7677 51.0733C93.8311 24.5766 115.56 5.5 138.381 5.5C149.451 5.5 158.679 10.6211 166.607 19.1139C174.545 27.6159 181.154 39.4731 186.959 52.8711C192.762 66.2647 197.746 81.162 202.449 95.7252C203.173 97.9688 203.891 100.205 204.604 102.426C208.517 114.613 212.288 126.36 216.237 136.524C217.226 139.072 218.681 141.526 220.049 143.832L220.11 143.935ZM57.1674 218.4C57.6428 224.963 58.0106 231.401 58.2024 237.502C58.4726 246.096 58.393 254.009 57.7751 260.652C57.1559 267.31 56.0005 272.636 54.1541 276.097C53.2338 277.822 52.1597 279.049 50.9285 279.76C49.7088 280.465 48.2917 280.689 46.6226 280.334C43.237 279.613 38.8507 276.515 33.2649 270.272C24.5073 260.483 24.5306 248.05 30.0551 237.73C35.2178 228.086 45.1684 220.333 57.1674 218.4Z" stroke="#171616" stroke-opacity="0.41" shape-rendering="crispEdges"/>
</g>
<circle cx="113.5" cy="84.5" r="12.5" fill="#757693"/>
<circle cx="158.5" cy="84.5" r="12.5" fill="#757693"/>
<path d="M112.969 138.501L122.314 141.567C137.657 146.599 154.435 144.636 168.201 136.198L170.969 134.501" stroke="#757693" stroke-width="3" stroke-linecap="round"/>
<path d="M340.4 134.85H362.6V189H344.3V182.7C337 188.1 327.6 190.8 316.1 190.8C306.4 190.8 297.5 188.7 289.4 184.5C281.3 180.3 274.85 174.2 270.05 166.2C265.25 158.1 262.85 148.5 262.85 137.4C262.85 126.7 265.3 117.2 270.2 108.9C275.2 100.5 282.1 93.95 290.9 89.25C299.7 84.55 309.6 82.2 320.6 82.2C329.8 82.2 338.15 83.75 345.65 86.85C353.15 89.95 359.45 94.45 364.55 100.35L348.95 114.75C341.45 106.85 332.4 102.9 321.8 102.9C315.1 102.9 309.15 104.35 303.95 107.25C298.75 110.05 294.7 114.05 291.8 119.25C288.9 124.45 287.45 130.45 287.45 137.25C287.45 144.35 288.85 150.4 291.65 155.4C294.55 160.4 298.4 164.2 303.2 166.8C308 169.3 313.25 170.55 318.95 170.55C327.45 170.55 334.6 168.15 340.4 163.35V134.85ZM421.923 190.2C413.423 190.2 405.773 188.45 398.973 184.95C392.273 181.35 387.023 176.4 383.223 170.1C379.423 163.8 377.523 156.65 377.523 148.65C377.523 140.65 379.423 133.5 383.223 127.2C387.023 120.9 392.273 116 398.973 112.5C405.773 108.9 413.423 107.1 421.923 107.1C430.423 107.1 438.023 108.9 444.723 112.5C451.423 116 456.673 120.9 460.473 127.2C464.273 133.5 466.173 140.65 466.173 148.65C466.173 156.65 464.273 163.8 460.473 170.1C456.673 176.4 451.423 181.35 444.723 184.95C438.023 188.45 430.423 190.2 421.923 190.2ZM421.923 171C427.923 171 432.823 169 436.623 165C440.523 160.9 442.473 155.45 442.473 148.65C442.473 141.85 440.523 136.45 436.623 132.45C432.823 128.35 427.923 126.3 421.923 126.3C415.923 126.3 410.973 128.35 407.073 132.45C403.173 136.45 401.223 141.85 401.223 148.65C401.223 155.45 403.173 160.9 407.073 165C410.973 169 415.923 171 421.923 171ZM520.214 190.2C511.714 190.2 504.064 188.45 497.264 184.95C490.564 181.35 485.314 176.4 481.514 170.1C477.714 163.8 475.814 156.65 475.814 148.65C475.814 140.65 477.714 133.5 481.514 127.2C485.314 120.9 490.564 116 497.264 112.5C504.064 108.9 511.714 107.1 520.214 107.1C528.714 107.1 536.314 108.9 543.014 112.5C549.714 116 554.964 120.9 558.764 127.2C562.564 133.5 564.464 140.65 564.464 148.65C564.464 156.65 562.564 163.8 558.764 170.1C554.964 176.4 549.714 181.35 543.014 184.95C536.314 188.45 528.714 190.2 520.214 190.2ZM520.214 171C526.214 171 531.114 169 534.914 165C538.814 160.9 540.764 155.45 540.764 148.65C540.764 141.85 538.814 136.45 534.914 132.45C531.114 128.35 526.214 126.3 520.214 126.3C514.214 126.3 509.264 128.35 505.364 132.45C501.464 136.45 499.514 141.85 499.514 148.65C499.514 155.45 501.464 160.9 505.364 165C509.264 169 514.214 171 520.214 171ZM628.914 189L611.214 164.25L592.914 189H567.414L598.464 148.35L568.464 108.3H594.714L611.814 131.85L629.364 108.3H654.264L624.264 147.75L655.464 189H628.914ZM666.823 108.3H690.223V189H666.823V108.3ZM678.523 97.05C674.223 97.05 670.723 95.8 668.023 93.3C665.323 90.8 663.973 87.7 663.973 84C663.973 80.3 665.323 77.2 668.023 74.7C670.723 72.2 674.223 70.95 678.523 70.95C682.823 70.95 686.323 72.15 689.023 74.55C691.723 76.95 693.073 79.95 693.073 83.55C693.073 87.45 691.723 90.7 689.023 93.3C686.323 95.8 682.823 97.05 678.523 97.05ZM759.641 107.1C767.141 107.1 773.941 108.85 780.041 112.35C786.241 115.75 791.091 120.6 794.591 126.9C798.091 133.1 799.841 140.35 799.841 148.65C799.841 156.95 798.091 164.25 794.591 170.55C791.091 176.75 786.241 181.6 780.041 185.1C773.941 188.5 767.141 190.2 759.641 190.2C749.341 190.2 741.241 186.95 735.341 180.45V218.1H711.941V108.3H734.291V117.6C740.091 110.6 748.541 107.1 759.641 107.1ZM755.591 171C761.591 171 766.491 169 770.291 165C774.191 160.9 776.141 155.45 776.141 148.65C776.141 141.85 774.191 136.45 770.291 132.45C766.491 128.35 761.591 126.3 755.591 126.3C749.591 126.3 744.641 128.35 740.741 132.45C736.941 136.45 735.041 141.85 735.041 148.65C735.041 155.45 736.941 160.9 740.741 165C744.641 169 749.591 171 755.591 171Z" fill="#757693"/>
<defs>
<filter id="filter0_d_864_56332" x="25.7344" y="0" width="216.266" height="292" filterUnits="userSpaceOnUse" color-interpolation-filters="sRGB">
<feFlood flood-opacity="0" result="BackgroundImageFix"/>
<feColorMatrix in="SourceAlpha" type="matrix" values="0 0 0 0 0 0 0 0 0 0 0 0 0 0 0 0 0 0 127 0" result="hardAlpha"/>
<feOffset dx="9" dy="3"/>
<feGaussianBlur stdDeviation="4"/>
<feComposite in2="hardAlpha" operator="out"/>
<feColorMatrix type="matrix" values="0 0 0 0 0 0 0 0 0 0 0 0 0 0 0 0 0 0 0.25 0"/>
<feBlend mode="normal" in2="BackgroundImageFix" result="effect1_dropShadow_864_56332"/>
<feBlend mode="normal" in="SourceGraphic" in2="effect1_dropShadow_864_56332" result="shape"/>
</filter>
</defs>
</svg>
